<?xml version="1.0" standalone="no"?>
<!DOCTYPE svg PUBLIC "-//W3C//DTD SVG 20010904//EN"
 "http://www.w3.org/TR/2001/REC-SVG-20010904/DTD/svg10.dtd">
<svg version="1.0" xmlns="http://www.w3.org/2000/svg"
 width="1024.000000pt" height="1024.000000pt" viewBox="0 0 1024.000000 1024.000000"
 preserveAspectRatio="xMidYMid meet">

<g transform="translate(0.000000,1024.000000) scale(0.100000,-0.100000)"
fill="#000000" stroke="none">
<path d="M3753 8765 c11 -102 89 -287 170 -405 47 -68 171 -193 254 -257 41
-31 123 -81 181 -110 59 -29 97 -53 85 -53 -12 0 -32 4 -45 9 -13 5 -48 16
-78 26 -62 20 -219 96 -265 128 -78 55 -153 129 -198 197 -59 90 -57 60 5 -69
67 -139 222 -282 408 -376 41 -21 69 -40 62 -43 -22 -7 -153 29 -220 60 -35
16 -88 49 -117 74 -49 40 -53 41 -45 18 20 -51 75 -116 145 -169 144 -110 246
-157 372 -170 40 -4 61 -11 57 -17 -10 -15 -187 -3 -253 17 -30 9 -72 28 -93
42 -22 13 -42 22 -46 19 -11 -12 55 -82 117 -123 34 -24 98 -54 144 -69 71
-22 94 -25 172 -21 81 4 87 4 60 -9 -42 -18 -201 -18 -255 1 -24 8 -45 13 -47
11 -8 -8 78 -67 148 -101 59 -28 85 -35 134 -35 51 0 143 16 208 36 9 3 17 1
17 -5 0 -14 -95 -47 -160 -56 l-55 -8 30 -13 c70 -31 241 -12 338 37 20 11 37
18 37 16 0 -2 -42 -46 -93 -98 -51 -52 -111 -122 -134 -157 -49 -73 -99 -197
-120 -297 -20 -92 -12 -240 15 -315 l21 -55 0 85 c2 113 23 209 66 296 43 88
76 111 43 31 -43 -108 -52 -159 -52 -287 0 -94 4 -140 18 -185 49 -157 132
-272 232 -321 30 -15 57 -24 60 -21 3 3 -15 19 -40 36 -58 40 -106 99 -150
186 -99 195 -91 418 21 603 63 103 146 196 213 238 319 202 420 289 516 450
21 34 24 9 6 -42 -60 -169 -184 -307 -378 -417 -190 -109 -202 -125 -58 -76
163 56 231 94 325 188 91 91 127 149 184 300 38 101 113 210 167 242 46 28
112 53 166 64 66 14 22 45 -63 45 -45 0 -56 3 -52 14 8 20 -66 51 -116 49 -50
-2 -146 -49 -215 -106 -28 -23 -74 -61 -102 -84 -56 -46 -101 -63 -172 -63
l-46 0 13 -43 c18 -59 29 -173 18 -180 -5 -3 -22 20 -38 50 -42 81 -127 168
-214 220 -52 30 -66 43 -46 38 50 -11 107 -42 173 -95 71 -58 81 -51 20 16
-99 107 -192 163 -403 242 -233 87 -342 141 -504 250 -273 184 -417 349 -517
592 -33 83 -38 87 -31 25z m2121 -921 c8 -20 -1 -34 -20 -34 -8 0 -14 10 -14
25 0 28 24 34 34 9z"/>
<path d="M4384 8413 c-52 -178 50 -325 275 -397 42 -13 121 -38 175 -56 123
-39 245 -96 310 -146 27 -21 45 -31 41 -23 -38 60 -139 131 -250 174 -270 104
-433 205 -482 300 -26 49 -43 127 -36 167 9 60 -14 46 -33 -19z"/>
<path d="M4214 7270 c-431 -119 -830 -285 -1194 -498 -52 -30 -114 -66 -138
-80 -24 -13 -47 -34 -51 -46 -5 -11 -12 -276 -16 -588 l-7 -567 24 -6 c14 -4
44 -5 69 -3 l44 3 6 335 c3 184 7 428 8 542 l1 207 68 39 c311 182 635 328
982 445 83 28 393 112 453 123 20 3 39 10 42 14 5 8 -165 111 -181 109 -5 0
-55 -13 -110 -29z"/>
<path d="M5725 7228 c-19 -29 -35 -58 -35 -64 0 -7 24 -18 53 -24 139 -33 451
-137 617 -205 210 -86 550 -261 733 -377 l48 -31 -6 -516 c-3 -284 -8 -528
-10 -543 l-4 -28 68 0 69 0 6 113 c3 61 8 324 11 582 l6 470 -78 46 c-43 26
-107 64 -143 86 -130 79 -376 209 -490 259 -47 20 -103 44 -125 54 -144 65
-628 230 -673 230 -6 0 -27 -24 -47 -52z"/>
<path d="M5001 6852 c-55 -57 -92 -171 -98 -300 -6 -109 8 -208 34 -239 13
-16 14 -16 9 -1 -3 9 -10 53 -16 98 -18 133 17 287 90 395 15 22 32 50 39 63
20 37 -17 28 -58 -16z"/>
<path d="M4070 5913 c-107 -6 -257 -25 -425 -54 -93 -16 -216 -32 -273 -36
l-103 -6 3 -35 c3 -31 6 -35 36 -37 18 -2 387 -8 820 -15 l787 -12 35 -34 c92
-87 220 -85 323 6 20 18 43 30 51 27 7 -3 356 -9 774 -13 l762 -7 0 35 c0 42
35 32 -330 93 -503 83 -797 99 -1035 57 -127 -23 -179 -35 -220 -53 -14 -7
-10 -8 15 -4 122 20 186 24 362 24 268 1 598 -22 923 -65 183 -24 176 -36 -16
-30 -91 3 -426 11 -743 17 l-577 12 -16 -22 c-48 -69 -203 -66 -250 5 l-15 24
-747 1 c-410 0 -737 4 -726 8 19 8 219 27 550 53 88 7 291 13 452 13 161 0
289 3 285 7 -4 3 -69 16 -144 27 -130 20 -355 26 -558 14z"/>
<path d="M4791 5856 c11 -9 69 -14 69 -6 0 6 -16 10 -37 10 -20 0 -34 -2 -32
-4z"/>
<path d="M4888 5833 c6 -2 18 -2 25 0 6 3 1 5 -13 5 -14 0 -19 -2 -12 -5z"/>
<path d="M1813 5283 c-128 -2 -233 -6 -233 -10 0 -3 8 -15 18 -26 15 -17 17
-41 15 -211 -3 -296 -10 -371 -39 -405 l-23 -28 147 -5 c172 -7 248 3 315 40
69 37 91 72 95 153 5 77 -10 115 -61 153 -51 39 -81 46 -198 47 -61 0 -111 5
-115 10 -3 6 -3 60 1 120 l7 109 117 0 c129 0 149 -7 171 -60 20 -49 30 -35
30 45 0 41 -3 74 -7 73 -5 -2 -113 -4 -240 -5z m111 -361 c48 -28 71 -68 70
-120 -2 -102 -62 -151 -186 -152 -56 0 -69 3 -78 19 -12 23 -13 94 -3 206 l6
77 81 -7 c46 -3 94 -14 110 -23z"/>
<path d="M2240 5263 c0 -4 10 -17 23 -31 22 -23 22 -26 19 -290 l-3 -267 -28
-41 -29 -41 112 -6 c61 -3 113 -3 115 -1 2 2 -8 17 -23 34 -14 17 -26 42 -26
54 0 15 37 66 103 141 56 65 126 148 155 184 30 36 58 68 64 70 6 2 7 -61 3
-185 -7 -226 -10 -246 -35 -269 -11 -10 -17 -22 -14 -26 7 -11 214 -12 214 -1
0 5 -12 19 -26 33 l-25 24 3 270 3 270 28 36 c15 20 27 39 27 42 0 4 -50 7
-111 7 l-111 0 26 -31 c45 -53 38 -72 -74 -199 -37 -41 -97 -111 -135 -155
-37 -44 -74 -87 -82 -95 -13 -13 -14 13 -11 195 3 199 4 212 26 242 12 17 22
34 22 37 0 3 -47 6 -105 6 -58 0 -105 -3 -105 -7z"/>
<path d="M3160 5256 c0 -7 7 -19 15 -26 21 -17 19 -95 -4 -256 -25 -169 -46
-241 -82 -276 -33 -33 -48 -35 -83 -7 -30 24 -42 19 -51 -19 -20 -94 81 -132
155 -59 63 61 99 173 125 387 8 69 18 144 21 168 l5 42 90 0 89 0 0 -182 c-1
-269 -12 -383 -41 -414 -12 -13 -20 -26 -18 -28 4 -4 188 -9 223 -7 4 1 -6 17
-23 36 l-31 36 1 142 c0 78 4 204 8 280 7 121 10 140 29 160 12 13 22 26 22
30 0 4 -101 7 -225 7 -184 0 -225 -2 -225 -14z"/>
<path d="M3740 5258 c0 -8 9 -23 20 -33 30 -27 32 -58 23 -332 l-8 -252 -28
-29 -28 -29 111 -8 c61 -4 114 -4 117 -1 3 3 -9 22 -26 43 -17 21 -31 44 -31
51 0 8 50 71 111 141 61 69 135 154 165 189 31 34 58 62 62 62 4 0 5 -94 2
-210 l-6 -210 -27 -28 c-15 -16 -24 -31 -20 -35 11 -12 213 -8 213 4 0 6 -11
24 -25 41 l-25 30 1 221 c1 259 7 318 37 350 12 13 22 26 22 30 0 4 -45 7
-100 7 -55 0 -100 -2 -100 -5 0 -3 10 -19 21 -35 22 -28 22 -29 3 -64 -23 -42
-312 -376 -327 -376 -6 0 -8 30 -4 83 4 45 7 137 7 204 l0 122 31 36 31 35
-73 0 c-41 0 -91 3 -111 6 -30 5 -38 3 -38 -8z"/>
<path d="M4540 5255 c0 -2 11 -21 25 -41 30 -44 30 -66 11 -372 -12 -198 -13
-203 -39 -230 -15 -16 -27 -31 -27 -35 0 -4 43 -7 95 -7 52 0 95 3 95 8 0 4
-13 19 -29 34 l-29 28 -4 222 c-2 123 -1 229 2 236 7 15 15 1 63 -113 19 -44
62 -143 96 -220 34 -77 66 -150 71 -162 14 -33 29 -28 47 15 8 20 46 102 83
182 37 80 78 168 90 195 61 134 55 139 58 -45 4 -227 -3 -303 -34 -339 -13
-16 -24 -32 -24 -35 0 -3 50 -6 110 -6 61 0 110 4 110 9 0 5 -7 15 -17 22 -41
35 -45 70 -38 333 6 218 10 254 25 271 37 43 36 45 -50 45 l-81 0 -33 -72
c-19 -40 -53 -113 -76 -163 -23 -49 -60 -128 -81 -174 -22 -46 -41 -82 -43
-80 -6 6 -203 451 -210 477 -7 20 -13 22 -87 22 -43 0 -79 -2 -79 -5z"/>
<path d="M5784 5219 l26 -31 0 -248 c0 -136 -3 -261 -6 -279 -4 -17 -17 -43
-31 -57 -13 -14 -22 -28 -20 -30 2 -3 53 -3 112 -2 l107 3 -24 30 c-21 27 -23
38 -23 160 l0 130 154 3 c85 1 158 -1 163 -6 4 -4 4 -65 0 -135 -7 -108 -12
-132 -30 -157 l-23 -30 113 0 112 0 -29 30 c-37 38 -40 86 -30 377 7 198 8
205 32 234 14 16 23 32 21 35 -3 3 -52 3 -108 2 l-103 -3 27 -31 c25 -30 26
-37 26 -143 l0 -111 -160 0 -160 0 0 108 c0 89 3 112 20 140 11 18 20 35 20
37 0 3 -48 5 -106 5 l-106 0 26 -31z"/>
<path d="M7010 5242 c0 -3 10 -16 21 -29 22 -22 22 -23 4 -70 -28 -76 -157
-343 -166 -343 -11 0 -189 358 -189 381 0 10 9 23 20 29 42 22 18 30 -90 30
l-111 0 39 -52 c22 -29 90 -153 152 -275 103 -202 112 -225 106 -259 -16 -82
-109 -123 -163 -73 l-22 22 -11 -27 c-33 -87 33 -134 126 -90 65 31 103 89
249 388 98 201 154 302 179 328 20 20 33 39 28 41 -11 6 -172 5 -172 -1z"/>
<path d="M7298 5217 c21 -22 22 -32 21 -208 0 -275 -10 -384 -37 -412 -12 -13
-22 -26 -22 -30 0 -4 52 -7 115 -7 72 0 115 4 115 10 0 6 -7 13 -15 17 -36 13
-65 139 -51 216 l6 35 93 4 c107 5 153 24 210 87 55 61 70 131 42 198 -41 98
-81 113 -314 113 l-184 0 21 -23z m298 -33 c60 -29 76 -59 72 -136 -6 -102
-52 -151 -152 -161 -90 -8 -86 -15 -86 159 l0 154 66 0 c40 0 79 -6 100 -16z"/>
<path d="M7870 5235 c0 -3 16 -26 36 -52 45 -59 264 -495 264 -525 0 -42 -36
-86 -80 -99 -37 -11 -43 -10 -69 9 -16 11 -31 18 -35 15 -3 -4 -6 -26 -6 -49
0 -70 40 -91 113 -60 52 21 103 90 169 226 203 419 241 491 264 506 13 9 24
20 24 25 0 5 -40 9 -90 9 -49 0 -90 -3 -90 -7 0 -4 10 -17 21 -29 21 -22 21
-24 6 -69 -21 -61 -150 -345 -157 -345 -10 0 -191 374 -190 393 0 9 3 17 8 17
4 0 13 9 20 20 12 20 10 20 -98 20 -60 0 -110 -2 -110 -5z"/>
<path d="M3546 4288 c-109 -109 7 -294 142 -224 84 43 103 164 37 226 -19 18
-40 25 -85 28 -57 4 -61 3 -94 -30z m129 6 c41 -16 57 -105 31 -168 -24 -57
-95 -67 -138 -20 -39 44 -30 147 15 179 22 16 64 20 92 9z"/>
<path d="M3838 4211 c2 -68 -1 -117 -7 -130 -11 -20 -9 -21 31 -20 24 0 37 3
31 6 -15 6 -18 113 -3 113 5 0 28 -25 50 -56 39 -52 83 -85 96 -71 3 3 -22 39
-56 79 l-61 73 61 58 c51 48 57 57 38 57 -15 0 -38 -17 -66 -50 -51 -59 -76
-66 -70 -17 3 17 8 40 13 50 6 14 2 17 -26 17 l-34 0 3 -109z"/>
<path d="M4110 4311 c0 -6 9 -25 19 -43 11 -18 31 -63 46 -100 21 -55 24 -71
15 -89 -9 -15 -18 -19 -34 -15 -27 7 -37 0 -29 -20 7 -20 47 -17 65 4 14 15
148 260 148 269 0 3 -12 3 -27 1 -20 -2 -27 -8 -25 -20 3 -17 -53 -138 -64
-138 -7 0 -64 129 -64 146 0 8 -10 14 -25 14 -14 0 -25 -4 -25 -9z"/>
<path d="M4409 4316 c-3 -3 17 -50 43 -104 43 -86 47 -102 38 -127 -9 -24 -14
-27 -40 -21 -25 5 -30 2 -30 -14 0 -26 50 -28 72 -2 22 25 138 255 132 263 -8
14 -44 -4 -44 -22 0 -21 -51 -129 -61 -129 -3 0 -20 35 -37 78 -21 54 -36 78
-49 80 -10 2 -21 1 -24 -2z"/>
<path d="M4828 4199 c3 -71 0 -115 -7 -122 -22 -22 -10 -27 61 -27 64 0 75 3
100 27 55 53 23 119 -62 125 l-45 3 -3 43 -3 42 47 0 c33 0 51 -5 60 -17 12
-16 13 -15 14 10 l0 27 -82 0 -83 0 3 -111z m130 -32 c17 -13 15 -62 -4 -81
-8 -9 -31 -16 -50 -16 l-34 0 0 54 c0 44 3 55 18 58 21 5 53 -2 70 -15z"/>
<path d="M5111 4284 c-61 -51 -65 -148 -10 -203 56 -56 152 -48 196 18 28 41
32 124 7 159 -39 57 -141 70 -193 26z m124 0 c22 -9 45 -57 45 -96 0 -18 -9
-52 -19 -74 -23 -51 -62 -64 -110 -40 -82 43 -55 216 34 216 18 0 41 -3 50 -6z"/>
<path d="M5398 4194 c3 -104 2 -119 -14 -131 -16 -11 -13 -13 24 -13 40 0 42
1 32 20 -6 11 -9 32 -7 47 3 25 9 29 56 38 76 15 109 62 81 114 -13 25 -33 31
-110 37 l-65 5 3 -117z m130 68 c30 -38 1 -82 -54 -82 l-34 0 0 49 c0 30 5 51
13 54 19 8 61 -4 75 -21z"/>
<path d="M5652 4303 c-4 -2 -6 -53 -4 -115 3 -97 1 -114 -14 -125 -16 -12 -16
-13 0 -19 10 -4 47 -4 84 -1 56 4 70 9 89 32 13 14 23 37 23 51 0 30 -32 64
-62 65 -77 3 -73 1 -73 49 0 45 0 45 38 48 26 2 45 -2 58 -14 18 -16 19 -16
19 4 0 19 -7 21 -75 24 -42 2 -79 2 -83 1z m118 -143 c11 -11 20 -29 20 -40 0
-29 -36 -60 -70 -60 -30 0 -30 1 -30 53 0 30 3 57 7 60 13 14 54 6 73 -13z"/>
<path d="M5954 4295 c-75 -38 -92 -159 -30 -221 29 -29 41 -34 81 -34 26 0 60
8 76 17 31 19 69 85 69 121 0 36 -26 89 -53 107 -36 23 -106 28 -143 10z m123
-31 c23 -23 25 -31 21 -89 -3 -50 -9 -70 -28 -90 -47 -50 -123 -24 -139 48
-26 113 73 203 146 131z"/>
<path d="M6228 4189 c3 -71 0 -115 -7 -122 -19 -19 -12 -27 24 -27 36 0 43 8
24 27 -6 6 -9 26 -7 44 3 32 5 34 53 42 86 13 124 83 69 126 -21 16 -41 21
-93 21 l-66 0 3 -111z m120 79 c7 -7 12 -24 12 -39 0 -51 -81 -83 -94 -36 -8
30 -8 72 1 80 11 12 68 8 81 -5z"/>
<path d="M6462 4293 c2 -5 22 -47 46 -95 23 -48 42 -96 42 -106 0 -26 -24 -44
-52 -40 -15 2 -23 -2 -23 -12 0 -19 51 -26 72 -9 8 7 44 71 79 141 62 125 63
128 39 128 -17 0 -25 -6 -25 -17 0 -10 -14 -47 -31 -83 l-31 -65 -28 62 c-16
34 -31 71 -35 83 -4 13 -15 20 -32 20 -13 0 -23 -3 -21 -7z"/>
<path d="M2980 4094 c0 -3 9 -40 20 -82 63 -246 233 -623 380 -843 299 -446
709 -839 1155 -1108 38 -24 74 -43 79 -44 10 -2 20 67 56 408 12 110 25 216
30 235 15 65 10 -154 -9 -420 -11 -140 -16 -258 -12 -262 4 -5 83 -46 175 -92
197 -98 152 -100 402 16 179 83 358 179 449 241 615 417 1003 865 1247 1441
42 100 98 250 98 263 0 2 -32 3 -71 1 l-71 -3 -47 -120 c-97 -247 -263 -533
-441 -755 -160 -200 -447 -465 -680 -628 -162 -113 -365 -235 -433 -261 -32
-13 -31 -19 -52 174 -9 77 -23 181 -31 230 -8 50 -14 102 -14 118 0 47 17 29
24 -25 22 -163 56 -221 149 -252 63 -21 81 -21 73 1 -27 70 -25 252 4 327 16
44 13 46 -42 26 l-53 -19 -20 24 c-11 13 -38 70 -59 127 -30 79 -49 113 -81
146 -23 23 -49 42 -57 42 -8 0 -38 -43 -68 -97 -83 -152 -122 -213 -132 -207
-5 4 -53 71 -106 151 -52 80 -101 147 -107 149 -20 8 -81 -34 -108 -74 -31
-44 -84 -216 -138 -442 -21 -91 -39 -168 -39 -172 0 -17 -23 -4 -146 87 -198
147 -330 270 -539 499 -6 6 -26 31 -45 56 -19 25 -37 47 -40 50 -3 3 -25 32
-50 65 -214 287 -390 633 -476 932 l-29 103 -72 0 c-40 0 -73 -3 -73 -6z"/>
<path d="M4768 3566 c-87 -28 -158 -54 -158 -57 0 -4 21 -14 48 -24 26 -10 52
-21 57 -26 6 -4 28 -1 50 7 48 16 113 18 152 3 20 -7 52 -7 111 1 61 8 87 8
97 0 10 -8 30 -5 79 10 36 12 66 25 66 28 0 10 -301 112 -325 111 -11 -1 -91
-24 -177 -53z"/>
<path d="M4788 3454 c-5 -4 -8 -20 -8 -36 0 -26 3 -28 38 -28 21 0 60 -7 86
-16 38 -13 56 -14 85 -6 20 6 55 13 79 17 40 6 42 8 42 42 l0 36 -62 -9 c-72
-9 -97 -9 -188 1 -36 4 -68 4 -72 -1z"/>
<path d="M4777 3363 c-3 -5 -8 -32 -12 -61 l-7 -53 57 -75 c57 -74 101 -108
132 -102 11 2 3 12 -25 31 -59 38 -103 133 -72 152 6 4 19 24 31 46 26 53 14
69 -52 69 -26 0 -50 -3 -52 -7z"/>
<path d="M4835 3060 c-4 -6 6 -32 21 -58 15 -26 40 -71 57 -100 16 -30 33 -50
37 -45 5 4 29 48 54 96 64 124 62 149 -8 78 -37 -38 -41 -39 -65 -26 -14 7
-37 25 -50 39 -27 28 -36 32 -46 16z"/>
<path d="M5623 3032 c-9 -6 -33 -131 -33 -172 0 -13 81 -33 90 -23 12 13 51
163 45 173 -3 5 -22 14 -43 20 -44 12 -44 12 -59 2z"/>
<path d="M5567 2783 c-3 -4 -14 -52 -26 -105 -32 -151 -25 -348 13 -348 15 0
26 43 26 101 0 28 5 41 20 49 14 8 21 25 26 69 5 45 11 60 25 64 22 6 42 75
33 113 -4 17 -18 31 -38 39 -52 21 -74 26 -79 18z"/>
</g>
</svg>
